<svg xmlns="http://www.w3.org/2000/svg" viewBox="0 0 766.8 163.2"><path fill="#fff" d="M69.8 62.2c-1.6-2.7-4-4.9-6.9-6.6-3-1.7-6.3-2.6-10-2.6-1.6 0-3.3.2-4.9.5-1.6.4-3.1.9-4.4 1.7-1.3.8-2.3 1.8-3.1 2.9-.8 1.2-1.2 2.7-1.2 4.4 0 3.1 1.4 5.4 4.2 6.9 2.8 1.5 6.9 2.9 12.5 4.1 3.5.8 6.7 1.8 9.7 2.9s5.6 2.6 7.8 4.3c2.2 1.7 3.9 3.7 5.2 6.1 1.2 2.4 1.9 5.2 1.9 8.4 0 4.3-.8 8-2.5 11-1.6 3-3.8 5.4-6.6 7.4-2.7 1.9-5.8 3.3-9.3 4.1-3.5.8-7.1 1.2-10.8 1.2-5.6 0-11-1.1-16.3-3.3-5.3-2.2-9.7-5.5-13.2-9.9l10.3-8.8c2 2.9 4.7 5.3 8.1 7.3s7.2 2.9 11.4 2.9c1.9 0 3.6-.2 5.3-.5 1.7-.4 3.2-1 4.6-1.8s2.5-1.9 3.3-3.3c.8-1.3 1.2-3 1.2-5.1 0-3.4-1.6-5.9-4.9-7.6-3.2-1.7-8-3.2-14.3-4.6-2.5-.6-5-1.4-7.5-2.2-2.5-.9-4.8-2.1-6.9-3.6-2.1-1.5-3.7-3.5-5-5.8s-1.9-5.2-1.9-8.6c0-3.9.8-7.3 2.4-10.1 1.6-2.8 3.7-5.2 6.3-7s5.5-3.1 8.8-4c3.3-.9 6.7-1.3 10.2-1.3 5.2 0 10.3 1 15.2 3.1 4.9 2.1 8.7 5.1 11.4 9l-10.1 8.5zM131.2 163.2h-14.5V43.6h14.2v11.5h.5c2.4-3.9 5.8-7.1 10.4-9.7 4.6-2.5 9.9-3.8 15.9-3.8 5.4 0 10.4 1 14.9 2.9 4.5 2 8.3 4.7 11.6 8.2 3.2 3.5 5.7 7.6 7.5 12.3 1.7 4.7 2.6 9.7 2.6 15.1s-.9 10.4-2.6 15.2c-1.7 4.8-4.2 8.9-7.4 12.4s-7 6.3-11.6 8.3c-4.5 2-9.6 3-15.3 3-5.2 0-10.2-1.1-14.8-3.4-4.6-2.3-8.3-5.5-10.9-9.6h-.5v57.2zm48.2-83c0-3.4-.5-6.7-1.5-9.9s-2.6-6-4.6-8.5c-2.1-2.5-4.6-4.4-7.6-5.9-3-1.4-6.6-2.2-10.6-2.2-3.7 0-7.1.7-10.1 2.2-3 1.4-5.6 3.4-7.8 5.9-2.2 2.5-3.8 5.3-5 8.5s-1.8 6.6-1.8 10.1.6 6.9 1.8 10.1c1.2 3.2 2.9 6 5 8.4 2.2 2.4 4.8 4.4 7.8 5.8s6.4 2.2 10.1 2.2c4 0 7.5-.7 10.6-2.2 3-1.5 5.6-3.5 7.6-6 2.1-2.5 3.6-5.3 4.6-8.5 1-3.3 1.5-6.6 1.5-10zM241.4 54.8c1.7-3.6 4.7-6.7 9-9.3 4.2-2.6 9-3.9 14.2-3.9 4.7 0 8.8.8 12.2 2.4 3.4 1.6 6.2 3.7 8.5 6.4s3.9 5.8 5 9.4 1.6 7.5 1.6 11.6v45.5h-14.5V76.2c0-3-.2-5.8-.7-8.5s-1.3-5.1-2.5-7.1c-1.2-2.1-2.9-3.7-5-5-2.1-1.2-4.9-1.9-8.3-1.9-5.8 0-10.5 2.2-14.2 6.6s-5.6 10.3-5.6 17.6v39h-14.5V0h14.5v54.8h.3zM396.4 79.7v2.5c0 .8-.1 1.7-.2 2.5H338c.1 3.1.8 6 2.1 8.7s3 5.1 5.2 7.1 4.7 3.6 7.5 4.7 5.8 1.7 9 1.7c4.9 0 9.2-1.1 12.8-3.3 3.6-2.2 6.4-4.8 8.5-7.9l10.2 8.2c-3.9 5.2-8.5 9-13.8 11.5s-11.2 3.7-17.7 3.7c-5.6 0-10.7-.9-15.4-2.8s-8.8-4.5-12.2-7.8c-3.4-3.4-6.1-7.4-8-12.2-2-4.7-2.9-10-2.9-15.8 0-5.7 1-10.9 2.9-15.7s4.6-8.9 8-12.3 7.4-6.1 12.1-8c4.6-1.9 9.6-2.9 15-2.9s10.2.9 14.6 2.6c4.4 1.8 8.1 4.3 11.1 7.6s5.4 7.3 7 12c1.6 4.8 2.4 10 2.4 15.9zm-14.8-5.9c-.1-2.9-.6-5.6-1.5-8.1s-2.2-4.7-3.9-6.6-3.8-3.3-6.3-4.4-5.5-1.6-8.9-1.6c-3.1 0-6 .5-8.7 1.6s-5.1 2.6-7.1 4.4c-2 1.9-3.7 4.1-4.9 6.6-1.3 2.5-2 5.2-2.2 8.1h43.5zM427.9 51.9c-.1-3.1-.3-5.8-.5-8.2h13.7c.2 1.9.4 4 .5 6.4s.2 4.4.2 6h.5c2.1-4.3 5.1-7.8 9-10.5 4-2.6 8.4-3.9 13.4-3.9 2.3 0 4.2.2 5.7.6l-.6 13.5c-2.1-.5-4.3-.8-6.6-.8-3.5 0-6.5.6-9.1 1.9s-4.7 3-6.4 5.2-3 4.7-3.8 7.5-1.2 5.8-1.2 8.9v38.6h-14.5V59.5c-.1-2-.2-4.6-.3-7.6zM563.9 79.7v2.5c0 .8-.1 1.7-.2 2.5h-58.2c.1 3.1.8 6 2.1 8.7s3 5.1 5.2 7.1 4.7 3.6 7.5 4.7 5.8 1.7 9 1.7c4.9 0 9.2-1.1 12.8-3.3 3.6-2.2 6.4-4.8 8.5-7.9l10.2 8.2c-3.9 5.2-8.5 9-13.8 11.5-5.3 2.5-11.2 3.7-17.7 3.7-5.6 0-10.7-.9-15.4-2.8-4.7-1.9-8.8-4.5-12.2-7.8-3.4-3.4-6.1-7.4-8-12.2-2-4.7-2.9-10-2.9-15.8 0-5.7 1-10.9 2.9-15.7s4.6-8.9 8-12.3 7.4-6.1 12.1-8c4.6-1.9 9.6-2.9 15-2.9s10.2.9 14.6 2.6c4.4 1.8 8.1 4.3 11.1 7.6s5.4 7.3 7 12c1.6 4.8 2.4 10 2.4 15.9zm-14.8-5.9c-.1-2.9-.6-5.6-1.5-8.1s-2.2-4.7-3.9-6.6c-1.7-1.9-3.8-3.3-6.3-4.4s-5.5-1.6-8.9-1.6c-3.1 0-6 .5-8.7 1.6-2.7 1.1-5.1 2.6-7.1 4.4-2 1.9-3.7 4.1-4.9 6.6-1.3 2.5-2 5.2-2.2 8.1h43.5zM669.7 80.2c0 5.7-1 10.9-3 15.6-2 4.8-4.8 8.9-8.3 12.3-3.6 3.5-7.7 6.1-12.6 8.1-4.8 1.9-10 2.9-15.6 2.9s-10.8-1-15.6-2.9c-4.8-1.9-9-4.6-12.5-8.1s-6.3-7.6-8.3-12.3c-2-4.7-3-10-3-15.6 0-5.7 1-10.9 3-15.6s4.8-8.8 8.3-12.2c3.5-3.4 7.7-6.1 12.5-8 4.8-1.9 10-2.9 15.6-2.9s10.8 1 15.6 2.9c4.8 1.9 9 4.6 12.6 8s6.3 7.5 8.3 12.2 3 9.9 3 15.6zm-15.1.1c0-3.5-.5-6.8-1.6-10s-2.7-6-4.7-8.4c-2.1-2.4-4.6-4.3-7.7-5.8-3-1.4-6.5-2.2-10.5-2.2-3.9 0-7.4.7-10.5 2.2s-5.6 3.4-7.7 5.8-3.6 5.2-4.7 8.4-1.6 6.5-1.6 10 .5 6.8 1.6 10 2.7 6 4.7 8.5c2.1 2.5 4.6 4.4 7.7 5.9 3.1 1.5 6.5 2.2 10.5 2.2 3.9 0 7.4-.7 10.5-2.2 3-1.4 5.6-3.4 7.7-5.9 2.1-2.5 3.6-5.3 4.7-8.5s1.6-6.5 1.6-10zM714.5 43.6c.2 1.9.4 3.9.5 6.3.1 2.3.2 4.3.2 5.8h.5c.9-2 2.2-3.8 3.8-5.5s3.4-3.2 5.5-4.5 4.3-2.3 6.8-3 5-1.1 7.7-1.1c4.7 0 8.8.8 12.2 2.4s6.2 3.7 8.5 6.4 3.9 5.8 5 9.4 1.6 7.5 1.6 11.6v45.5h-14.5V76.2c0-3-.2-5.8-.7-8.5s-1.3-5.1-2.5-7.1c-1.2-2.1-2.9-3.7-5.1-5-2.2-1.2-4.9-1.9-8.3-1.9-5.8 0-10.5 2.2-14.1 6.6-3.7 4.4-5.5 10.2-5.5 17.6v39h-14.7V59.3c0-2-.1-4.5-.2-7.6-.1-3.1-.3-5.8-.5-8.2h13.8v.1z"/><path fill="#e30613" d="M102.3 163.2H0v-29.1h77.9v4.7H4.7v19.7h92.9V4.7H4.7v109.7H0V0h102.3z"/></svg>
