<svg xmlns="http://www.w3.org/2000/svg" viewBox="0 0 766.7 163.23"><path d="M69.81 62.26a18.91 18.91 0 0 0-6.95-6.58 19.84 19.84 0 0 0-10-2.56 23.14 23.14 0 0 0-4.94.54 14.58 14.58 0 0 0-4.4 1.71 9.37 9.37 0 0 0-3.09 2.94 8 8 0 0 0-1.16 4.41 7.35 7.35 0 0 0 4.12 6.91q4.17 2.25 12.51 4.11a79.24 79.24 0 0 1 9.73 2.94 30.55 30.55 0 0 1 7.8 4.26 18.24 18.24 0 0 1 5.17 6.12 17.8 17.8 0 0 1 1.86 8.36 22.64 22.64 0 0 1-2.47 11 21.53 21.53 0 0 1-6.57 7.35 26.78 26.78 0 0 1-9.34 4.11 47.21 47.21 0 0 1-10.81 1.24 42.63 42.63 0 0 1-16.29-3.26 31.78 31.78 0 0 1-13.21-9.91l10.35-8.83a23.65 23.65 0 0 0 8.11 7.28 22.48 22.48 0 0 0 11.35 2.95 25 25 0 0 0 5.33-.55 15 15 0 0 0 4.63-1.78 9 9 0 0 0 4.56-8.36 8.06 8.06 0 0 0-4.87-7.59 65.53 65.53 0 0 0-14.28-4.65c-2.48-.61-5-1.36-7.49-2.24a25 25 0 0 1-6.88-3.64 18.19 18.19 0 0 1-5-5.81 17.6 17.6 0 0 1-1.92-8.59 20.35 20.35 0 0 1 2.39-10.15 20.88 20.88 0 0 1 6.25-7 27.45 27.45 0 0 1 8.8-4 39.42 39.42 0 0 1 10.19-1.36 38.64 38.64 0 0 1 15.21 3.1 25.18 25.18 0 0 1 11.35 9zm61.43 100.97h-14.52V43.63h14.21v11.5h.46a27.18 27.18 0 0 1 10.4-9.68 32.48 32.48 0 0 1 15.94-3.82 36.61 36.61 0 0 1 14.87 3 34.15 34.15 0 0 1 11.55 8.21 37.16 37.16 0 0 1 7.47 12.31 43 43 0 0 1 2.62 15.1 43.56 43.56 0 0 1-2.62 15.18 37.57 37.57 0 0 1-7.39 12.39 34.39 34.39 0 0 1-11.55 8.29 37.17 37.17 0 0 1-15.25 3 33.1 33.1 0 0 1-14.79-3.41 26.74 26.74 0 0 1-10.94-9.6h-.46zm48.18-83a32.18 32.18 0 0 0-1.55-9.91 25.33 25.33 0 0 0-4.63-8.52 22.27 22.27 0 0 0-7.64-5.88 24.32 24.32 0 0 0-10.58-2.17 23.19 23.19 0 0 0-10.12 2.17 23.84 23.84 0 0 0-7.79 5.88 27 27 0 0 0-5 8.52 29.35 29.35 0 0 0 0 20.13 26 26 0 0 0 5 8.45 24.32 24.32 0 0 0 7.79 5.8 23.19 23.19 0 0 0 10.12 2.17 23.77 23.77 0 0 0 10.58-2.24 23.14 23.14 0 0 0 7.64-6 25.19 25.19 0 0 0 4.63-8.51 32.2 32.2 0 0 0 1.52-9.9zm61.97-25.41a22.67 22.67 0 0 1 9-9.29 26.67 26.67 0 0 1 14.2-3.87 28.39 28.39 0 0 1 12.2 2.4 24.7 24.7 0 0 1 8.5 6.43 26 26 0 0 1 5 9.45 40.32 40.32 0 0 1 1.62 11.61v45.53h-14.59V76.41a50.67 50.67 0 0 0-.69-8.54 20.68 20.68 0 0 0-2.55-7.14 14.06 14.06 0 0 0-5-5 16.16 16.16 0 0 0-8.26-1.87 17.75 17.75 0 0 0-14.21 6.6q-5.55 6.6-5.56 17.63v39h-14.53V0h14.51v54.82zm155 24.94v2.48a20.47 20.47 0 0 1-.15 2.47h-58.23a21.73 21.73 0 0 0 2.09 8.7 22.85 22.85 0 0 0 5.17 7.07 24.21 24.21 0 0 0 16.52 6.38 24.4 24.4 0 0 0 12.82-3.23 26.21 26.21 0 0 0 8.49-7.9l10.2 8.21a36.5 36.5 0 0 1-13.83 11.49 44.16 44.16 0 0 1-33.12.9 35.76 35.76 0 0 1-12.2-7.82 36.18 36.18 0 0 1-8-12.16 41 41 0 0 1-2.93-15.8 42.18 42.18 0 0 1 2.86-15.72 36 36 0 0 1 8-12.31 36.58 36.58 0 0 1 12.07-8 41.37 41.37 0 0 1 29.63-.23 30.29 30.29 0 0 1 11.15 7.59 34.34 34.34 0 0 1 7 12 47.73 47.73 0 0 1 2.46 15.88zm-14.82-5.89a27.51 27.51 0 0 0-1.47-8.13 18.58 18.58 0 0 0-3.86-6.58 18.09 18.09 0 0 0-6.33-4.41 22.24 22.24 0 0 0-8.88-1.63 23.23 23.23 0 0 0-8.72 1.63 22.57 22.57 0 0 0-7.11 4.41 23.25 23.25 0 0 0-4.94 6.58 21.06 21.06 0 0 0-2.24 8.13zm46.32-21.99c-.11-3.1-.26-5.83-.47-8.21h13.75c.2 1.86.36 4 .46 6.43s.15 4.41.15 6h.47a25.42 25.42 0 0 1 9-10.45 23.63 23.63 0 0 1 13.36-4 22.58 22.58 0 0 1 5.71.62l-.61 13.47a27.66 27.66 0 0 0-6.64-.77 20.16 20.16 0 0 0-9.12 1.93 18.74 18.74 0 0 0-6.4 5.19 22.16 22.16 0 0 0-3.76 7.54 32 32 0 0 0-1.23 8.91v38.56h-14.52V59.47q0-2.94-.15-7.59zm136.05 27.88v2.48a20.48 20.48 0 0 1-.16 2.47h-58.22a21.73 21.73 0 0 0 2.09 8.7 22.85 22.85 0 0 0 5.17 7.07 24.21 24.21 0 0 0 16.57 6.38 24.34 24.34 0 0 0 12.77-3.23 26.15 26.15 0 0 0 8.5-7.9l10.19 8.21a36.48 36.48 0 0 1-13.82 11.49 44.19 44.19 0 0 1-33.13.9 35.85 35.85 0 0 1-12.2-7.82 36.48 36.48 0 0 1-8-12.16 41.21 41.21 0 0 1-2.93-15.8 42.18 42.18 0 0 1 2.86-15.72 36.1 36.1 0 0 1 8-12.31 36.68 36.68 0 0 1 12.07-8 41.4 41.4 0 0 1 29.64-.23 30.34 30.34 0 0 1 11.05 7.59 34.34 34.34 0 0 1 7 12 47.73 47.73 0 0 1 2.55 15.88zm-14.83-5.89a27.83 27.83 0 0 0-1.46-8.13 18.88 18.88 0 0 0-3.86-6.58 18 18 0 0 0-6.34-4.41 22.24 22.24 0 0 0-8.88-1.63 23.23 23.23 0 0 0-8.72 1.63 22.57 22.57 0 0 0-7.11 4.41 23.44 23.44 0 0 0-4.94 6.58 21.24 21.24 0 0 0-2.24 8.13zm120.61 6.35a39.77 39.77 0 0 1-3 15.65 36.93 36.93 0 0 1-20.93 20.36 43.81 43.81 0 0 1-31.19 0 36.74 36.74 0 0 1-12.51-8.05 37.81 37.81 0 0 1-8.26-12.31 39.77 39.77 0 0 1-3-15.65 39.18 39.18 0 0 1 3-15.56 36.6 36.6 0 0 1 20.77-20.14 43.95 43.95 0 0 1 31.19 0 38.36 38.36 0 0 1 12.59 8 36.62 36.62 0 0 1 8.33 12.11 39.18 39.18 0 0 1 3.01 15.59zm-15.14.08a31.15 31.15 0 0 0-1.62-10 25.42 25.42 0 0 0-4.73-8.41 22.64 22.64 0 0 0-7.66-5.79 26.3 26.3 0 0 0-20.92 0 22.68 22.68 0 0 0-7.67 5.79 25.4 25.4 0 0 0-4.72 8.41 31.74 31.74 0 0 0 0 20.08 26.29 26.29 0 0 0 4.72 8.49 22.26 22.26 0 0 0 7.67 5.87 26.41 26.41 0 0 0 20.92 0 22.22 22.22 0 0 0 7.66-5.87 26.32 26.32 0 0 0 4.73-8.49 31.11 31.11 0 0 0 1.62-10.08zm59.92-36.67c.2 1.86.36 3.95.46 6.28s.16 4.25.16 5.8h.46a21.55 21.55 0 0 1 3.78-5.49 27.42 27.42 0 0 1 5.49-4.5 27.1 27.1 0 0 1 6.79-3 27.43 27.43 0 0 1 7.75-1.09 28.46 28.46 0 0 1 12.2 2.4 24.56 24.56 0 0 1 8.49 6.43 25.85 25.85 0 0 1 5 9.45 40.32 40.32 0 0 1 1.63 11.61v45.53h-14.53v-40.7a49.48 49.48 0 0 0-.7-8.52 20.63 20.63 0 0 0-2.54-7.12 13.88 13.88 0 0 0-5.1-5 16.61 16.61 0 0 0-8.34-1.86 17.54 17.54 0 0 0-14.11 6.63q-5.47 6.58-5.48 17.58v39h-14.52V59.47q0-2.94-.15-7.59c-.11-3.1-.26-5.83-.46-8.21z" fill="#38383e"/><path fill="#e30613" d="M102.25 163.23H0v-29.08h77.86v4.69H4.69v19.7h92.87V4.69H4.69v109.76H0V0h102.25v163.23z"/></svg>
